<?xml version="1.0" encoding="UTF-8" standalone="no"?>
<!-- Created with Inkscape (http://www.inkscape.org/) -->

<svg
        width="151.49928mm"
        height="143.60054mm"
        viewBox="0 0 151.49928 143.60054"
        version="1.1"
        id="svg5"
        sodipodi:docname="map.svg"
        inkscape:version="1.1.1 (3bf5ae0d25, 2021-09-20)"
        xmlns:inkscape="http://www.inkscape.org/namespaces/inkscape"
        xmlns:sodipodi="http://sodipodi.sourceforge.net/DTD/sodipodi-0.dtd"
        xmlns="http://www.w3.org/2000/svg"
>
    <sodipodi:namedview
            id="namedview7"
            pagecolor="#ffffff"
            bordercolor="#666666"
            borderopacity="1.0"
            inkscape:pageshadow="2"
            inkscape:pageopacity="0.0"
            inkscape:pagecheckerboard="0"
            inkscape:document-units="mm"
            showgrid="false"
            inkscape:snap-intersection-paths="true"
            inkscape:object-paths="true"
            inkscape:snap-smooth-nodes="true"
            inkscape:snap-midpoints="true"
            inkscape:snap-center="true"
            inkscape:snap-object-midpoints="true"
            inkscape:snap-bbox="false"
            inkscape:snap-text-baseline="true"
            inkscape:zoom="1.0381216"
            inkscape:cx="176.76156"
            inkscape:cy="309.21232"
            inkscape:window-width="2538"
            inkscape:window-height="980"
            inkscape:window-x="1083"
            inkscape:window-y="326"
            inkscape:window-maximized="0"
            inkscape:current-layer="layer1">
        <inkscape:grid
                type="xygrid"
                id="grid2003"
                originx="-18.692916"
                originy="-26.261963"/>
    </sodipodi:namedview>
    <defs
            id="defs2">
        <inkscape:path-effect
                effect="fillet_chamfer"
                id="path-effect1303"
                is_visible="true"
                lpeversion="1"
                satellites_param="F,0,0,1,0,0,0,1 @ F,0,0,1,0,2.38125,0,1 @ F,0,0,1,0,2.38125,0,1 @ F,0,0,1,0,2.38125,0,1 @ F,0,0,1,0,2.38125,0,1 @ F,0,0,1,0,2.38125,0,1 @ F,0,0,1,0,2.38125,0,1 @ F,0,0,1,0,2.38125,0,1 @ F,0,0,1,0,2.38125,0,1 @ F,0,0,1,0,2.38125,0,1 @ F,0,0,1,0,2.38125,0,1 @ F,0,0,1,0,2.38125,0,1 @ F,0,0,1,0,2.38125,0,1 @ F,0,0,1,0,2.38125,0,1 @ F,0,0,1,0,2.38125,0,1 @ F,0,0,1,0,2.38125,0,1 @ F,0,0,1,0,2.38125,0,1 @ F,0,0,1,0,2.38125,0,1 @ F,0,0,1,0,2.38125,0,1 @ F,0,0,1,0,2.38125,0,1 @ F,0,0,1,0,2.38125,0,1 @ F,0,0,1,0,2.38125,0,1 @ F,0,0,1,0,2.38125,0,1 @ F,0,0,1,0,2.38125,0,1 @ F,0,0,1,0,2.38125,0,1 @ F,0,0,1,0,2.38125,0,1 @ F,0,0,1,0,2.38125,0,1 @ F,0,0,1,0,2.38125,0,1 @ F,0,0,1,0,2.38125,0,1 @ F,0,0,1,0,2.38125,0,1 @ F,0,0,1,0,0,0,1"
                unit="px"
                method="auto"
                mode="F"
                radius="9"
                chamfer_steps="1"
                flexible="false"
                use_knot_distance="true"
                apply_no_radius="true"
                apply_with_radius="true"
                only_selected="false"
                hide_knots="false"/>
    </defs>
    <g
            inkscape:label="Слой 1"
            inkscape:groupmode="layer"
            id="layer1"
            style="display:inline"
            transform="translate(-18.692916,-26.261962)">
        <path
                id="path3942-5"
                style="display:inline;fill:#0090d9;fill-opacity:1;stroke:none;stroke-width:18.7215;stroke-linecap:round;stroke-miterlimit:500"
                d="m 77.650391,99.257812 a 6.9999983,6.9999983 0 0 0 -7,6.999998 6.9999983,6.9999983 0 0 0 7,7 6.9999983,6.9999983 0 0 0 1.808593,-0.24219 l 48.712896,48.71485 c 2.17703,2.1772 2.17703,5.6021 0,7.7793 l -29.402349,29.40234 c -4.730196,4.7302 -7.388672,11.14448 -7.388672,17.83398 v 2.07227 a 6.9999985,6.9999985 0 0 0 -3.498047,6.05859 6.9999985,6.9999985 0 0 0 3.498047,6.06055 v 9.07031 c 0,6.8621 5.641747,12.49805 12.503911,12.49805 h 38.83007 c 4.83569,0 9.46933,1.9244 12.88868,5.34375 l 17.61914,17.61328 c 2.1772,2.1772 2.1772,5.6021 0,7.7793 l -17.50391,17.5 a 6.9999987,6.9999987 0 0 0 -1.8125,-0.23828 6.9999987,6.9999987 0 0 0 -7,7 6.9999987,6.9999987 0 0 0 0.24219,1.80664 l -3.58594,3.58593 c -4.85223,4.85224 -4.85223,12.82746 0,17.67969 l 15.45117,15.44336 c 4.85223,4.85223 12.82746,4.85223 17.67969,0 l 26.99609,-26.99609 a 6.9999987,6.9999987 0 0 0 1.80664,0.24218 6.9999987,6.9999987 0 0 0 7,-7 6.9999987,6.9999987 0 0 0 -0.23828,-1.8125 l 6.85157,-6.85156 c 2.17703,-2.17719 5.60422,-2.17719 7.78124,0 l 18.33594,18.33789 c 4.85224,4.85224 12.82746,4.85224 17.67969,0 l 15.92969,-15.92968 c 3.41934,-3.41935 8.05298,-5.3379 12.88867,-5.33789 h 1.66406 a 6.999999,6.999999 0 0 0 6.0625,3.5 6.999999,6.999999 0 0 0 6.0625,-3.5 h 8.66602 c 3.07902,0 5.5,2.42097 5.5,5.5 v 21.9746 c 0,4.83569 -1.91659,9.46933 -5.33594,12.88868 l -23.88086,23.88086 c -4.7302,4.73019 -7.38867,11.14643 -7.38867,17.83593 v 8.78125 a 6.999999,6.999999 0 0 0 -3.49805,6.06055 6.999999,6.999999 0 0 0 3.49805,6.06055 v 8.77929 c 0,6.86208 5.64198,12.49805 12.5039,12.49805 h 28.47266 c 6.8621,0 12.50391,-5.63597 12.50391,-12.49805 v -22.21875 c 0,-4.83567 1.91854,-9.46931 5.33789,-12.88867 l 14.57422,-14.57226 a 6.999999,6.999999 0 0 0 1.80859,0.24218 6.999999,6.999999 0 0 0 7,-7 6.999999,6.999999 0 0 0 -0.23828,-1.8125 l 27.46484,-27.46093 c 3.41934,-3.41935 8.05313,-5.33789 12.88867,-5.33789 h 34.97657 c 3.07903,0 5.49804,2.42097 5.49804,5.5 v 16.68945 a 6.999999,6.999999 0 0 0 -3.49609,6.06055 6.999999,6.999999 0 0 0 3.49609,6.06054 v 31.69141 c 0,4.83572 -1.91659,9.46933 -5.33593,12.88867 l -14.69922,14.70313 a 6.999999,6.999999 0 0 0 -1.81055,-0.23829 6.999999,6.999999 0 0 0 -7,7 6.999999,6.999999 0 0 0 0.24219,1.8086 l -2.05274,2.05469 c -4.73019,4.73019 -7.38867,11.14448 -7.38867,17.83398 v 25.34961 c 0,6.86211 5.63598,12.49805 12.49805,12.49805 h 53.65234 a 6.9999996,6.9999996 0 0 0 6.0625,3.5 6.9999996,6.9999996 0 0 0 6.0625,-3.5 h 29.89063 c 3.07903,0 5.5,2.41901 5.5,5.49804 v 23.42383 c 0,3.07903 -2.42097,5.5 -5.5,5.5 h -37.22656 c -6.86211,0 -12.49805,5.63415 -12.49805,12.49609 v 15.27344 a 6.9999996,6.9999996 0 0 0 -3.50391,6.06446 6.9999996,6.9999996 0 0 0 4.47266,6.52539 c 1.13748,4.23 3.26402,8.16244 6.41406,11.3125 l 31.9043,31.90429 c 4.73019,4.7302 11.15247,7.39063 17.84179,7.39063 h 14.63868 a 6.9999996,6.9999996 0 0 0 6.0625,3.5 6.9999996,6.9999996 0 0 0 6.0625,-3.5 h 14.64062 c 6.6895,0 13.10575,-2.66043 17.83594,-7.39063 l 12.1582,-12.15625 c 3.41938,-3.41934 8.053,-5.33789 12.88867,-5.33789 h 19.56836 c 3.07903,0 5.5,2.42097 5.5,5.5 v 41.64844 a 6.9999996,6.9999996 0 0 0 -3.5,6.0625 6.9999996,6.9999996 0 0 0 7,7 6.9999996,6.9999996 0 0 0 7,-7 6.9999996,6.9999996 0 0 0 -3.50195,-6.0625 v -41.64844 c 0,-6.86211 -5.63594,-12.49804 -12.49805,-12.49804 h -19.56836 c -6.68949,0 -13.1116,2.65848 -17.84179,7.38867 l -12.15235,12.15039 c -3.41933,3.41934 -8.05299,5.3457 -12.88867,5.3457 H 550.1543 a 6.9999996,6.9999996 0 0 0 -6.0625,-3.50195 6.9999996,6.9999996 0 0 0 -6.06446,3.50195 h -14.63672 c -4.8355,0 -9.46929,-1.92636 -12.88867,-5.3457 l -31.90429,-31.89649 c -2.09866,-2.09862 -3.55051,-4.68508 -4.42188,-7.46679 a 6.9999996,6.9999996 0 0 0 2.58203,-5.42578 6.9999996,6.9999996 0 0 0 -3.49804,-6.06055 v -15.27735 c 0,-3.07885 2.42097,-5.49804 5.5,-5.49804 h 37.22656 c 6.86211,0 12.49804,-5.63598 12.49805,-12.49805 V 486.7832 c 0,-6.86207 -5.63594,-12.49609 -12.49805,-12.49609 H 486.0957 a 6.9999996,6.9999996 0 0 0 -6.0625,-3.50195 6.9999996,6.9999996 0 0 0 -6.06445,3.50195 h -53.65039 c -3.07899,0 -5.5,-2.42097 -5.5,-5.5 V 443.4375 c 0,-4.83568 1.91656,-9.46933 5.33594,-12.88867 l 2.05273,-2.05274 a 6.999999,6.999999 0 0 0 1.8125,0.24414 6.999999,6.999999 0 0 0 7,-7 6.999999,6.999999 0 0 0 -0.23828,-1.81445 l 14.70117,-14.69726 c 4.73019,-4.7302 7.38867,-11.15226 7.38867,-17.8418 v -31.69141 a 6.999999,6.999999 0 0 0 3.49805,-6.06054 6.999999,6.999999 0 0 0 -3.49805,-6.06055 v -16.68945 c 0,-6.8621 -5.64179,-12.50391 -12.5039,-12.50391 h -34.97657 c -6.68936,0 -13.1116,2.65847 -17.84179,7.38867 l -27.46485,27.46485 a 6.999999,6.999999 0 0 0 -1.80859,-0.23829 6.999999,6.999999 0 0 0 -7,7 6.999999,6.999999 0 0 0 0.24219,1.80469 l -14.57813,14.57813 c -4.73019,4.73019 -7.38281,11.14643 -7.38281,17.83593 v 22.21875 c 0,3.079 -2.42684,5.49997 -5.50586,5.5 h -28.47266 c -3.07885,0 -5.49999,-2.421 -5.5,-5.5 v -8.77929 a 6.999999,6.999999 0 0 0 3.49805,-6.06055 6.999999,6.999999 0 0 0 -3.49805,-6.06055 v -8.78125 c 0,-4.83568 1.91855,-9.47128 5.3379,-12.89062 l 23.87304,-23.87305 c 4.7302,-4.73019 7.38867,-11.15229 7.38867,-17.8418 v -21.9746 c 0,-6.8621 -5.63595,-12.49805 -12.49804,-12.49805 h -8.66602 a 6.999999,6.999999 0 0 0 -6.0625,-3.50195 6.999999,6.999999 0 0 0 -6.06445,3.50195 h -1.66211 c -6.68951,0 -13.1116,2.65847 -17.8418,7.38867 l -15.92969,15.92969 c -2.17702,2.17719 -5.60421,2.17719 -7.78124,0 l -18.33594,-18.34375 c -4.85224,-4.85224 -12.81964,-4.85224 -17.67188,0 l -6.85547,6.85547 a 6.9999987,6.9999987 0 0 0 -1.8125,-0.23829 6.9999987,6.9999987 0 0 0 -7,7 6.9999987,6.9999987 0 0 0 0.24414,1.80665 l -27,27 c -2.17719,2.1772 -5.60404,2.1772 -7.78125,0 l -15.44336,-15.44922 c -2.17702,-2.1772 -2.17702,-5.59624 0,-7.77344 l 3.58594,-3.58789 a 6.9999987,6.9999987 0 0 0 1.80469,0.24219 6.9999987,6.9999987 0 0 0 7,-7 6.9999987,6.9999987 0 0 0 -0.23828,-1.8086 l 17.50195,-17.50586 c 4.85223,-4.85223 4.85223,-12.82746 0,-17.67968 l -17.61328,-17.61329 c -4.7302,-4.73019 -11.15229,-7.38867 -17.8418,-7.38867 h -38.83007 c -3.07903,0 -5.498051,-2.42098 -5.498051,-5.5 v -9.07031 a 6.9999985,6.9999985 0 0 0 3.496091,-6.06055 6.9999985,6.9999985 0 0 0 -3.496091,-6.05859 v -2.07227 c 0,-4.83568 1.916591,-9.46932 5.335941,-12.88867 L 133.125,174.45703 c 4.85223,-4.85223 4.85223,-12.82159 0,-17.67383 L 84.408203,108.06641 a 6.9999983,6.9999983 0 0 0 0.242188,-1.8086 6.9999983,6.9999983 0 0 0 -7,-6.999998 z m 0,3.499998 a 3.5,3.5 0 0 1 3.5,3.5 3.5,3.5 0 0 1 -3.5,3.5 3.5,3.5 0 0 1 -3.5,-3.5 3.5,3.5 0 0 1 3.5,-3.5 z m 17.232421,118.61914 a 3.5,3.5 0 0 1 3.5,3.5 3.5,3.5 0 0 1 -3.5,3.5 3.5,3.5 0 0 1 -3.5,-3.5 3.5,3.5 0 0 1 3.5,-3.5 z m 204.568358,72.29493 a 3.5,3.5 0 0 1 3.5,3.5 3.5,3.5 0 0 1 -3.5,3.5 3.5,3.5 0 0 1 -3.5,-3.5 3.5,3.5 0 0 1 3.5,-3.5 z m -145.54492,10.33203 a 3.5,3.5 0 0 1 3.5,3.5 3.5,3.5 0 0 1 -3.5,3.5 3.5,3.5 0 0 1 -3.5,-3.5 3.5,3.5 0 0 1 3.5,-3.5 z m 51.58984,4.76171 a 3.5,3.5 0 0 1 3.5,3.5 3.5,3.5 0 0 1 -3.5,3.5 3.5,3.5 0 0 1 -3.5,-3.5 3.5,3.5 0 0 1 3.5,-3.5 z m 243.87305,37.36915 a 3.5,3.5 0 0 1 3.5,3.5 3.5,3.5 0 0 1 -3.5,3.5 3.5,3.5 0 0 1 -3.5,-3.5 3.5,3.5 0 0 1 3.5,-3.5 z m -91.09375,6.36132 a 3.5,3.5 0 0 1 3.5,3.5 3.5,3.5 0 0 1 -3.5,3.5 3.5,3.5 0 0 1 -3.5,-3.5 3.5,3.5 0 0 1 3.5,-3.5 z m -71.69922,41.59766 a 3.5,3.5 0 0 1 3.5,3.5 3.5,3.5 0 0 1 -3.5,3.5 3.5,3.5 0 0 1 -3.5,-3.5 3.5,3.5 0 0 1 3.5,-3.5 z m 137.44336,24.14648 a 3.5,3.5 0 0 1 3.5,3.5 3.5,3.5 0 0 1 -3.5,3.5 3.5,3.5 0 0 1 -3.5,-3.5 3.5,3.5 0 0 1 3.5,-3.5 z m 56.01367,56.04493 a 3.5,3.5 0 0 1 3.5,3.5 3.5,3.5 0 0 1 -3.5,3.5 3.5,3.5 0 0 1 -3.5,-3.5 3.5,3.5 0 0 1 3.5,-3.5 z m -10.27539,71.75586 a 3.5,3.5 0 0 1 3.5,3.5 3.5,3.5 0 0 1 -3.5,3.5 3.5,3.5 0 0 1 -3.5,-3.5 3.5,3.5 0 0 1 3.5,-3.5 z m 74.33399,53.63281 a 3.5,3.5 0 0 1 3.5,3.5 3.5,3.5 0 0 1 -3.5,3.5 3.5,3.5 0 0 1 -3.5,-3.5 3.5,3.5 0 0 1 3.5,-3.5 z M 636.24609,631.5 a 3.5,3.5 0 0 1 3.5,3.5 3.5,3.5 0 0 1 -3.5,3.5 3.5,3.5 0 0 1 -3.5,-3.5 3.5,3.5 0 0 1 3.5,-3.5 z"
                transform="scale(0.26458333)"/>
        <text
                xml:space="preserve"
                style="font-style:normal;font-weight:normal;font-size:10.5833px;line-height:1.25;font-family:sans-serif;fill:#000000;fill-opacity:1;stroke:none;stroke-width:0.264583"
                x="0.42649737"
                y="109.40844"
                id="text28854"
                transform="rotate(-45)"><tspan
         sodipodi:role="line"
         id="tspan28852"
         style="font-style:normal;font-variant:normal;font-weight:600;font-stretch:normal;font-size:6.35px;font-family:'Moscow Sans';-inkscape-font-specification:'Moscow Sans, Semi-Bold';font-variant-ligatures:normal;font-variant-caps:normal;font-variant-numeric:normal;font-variant-east-asian:normal;stroke-width:0.264583"
         x="0.42649737"
         y="109.40844">По</tspan></text>
        <text
                xml:space="preserve"
                style="font-style:normal;font-weight:normal;font-size:10.5833px;line-height:1.25;font-family:sans-serif;fill:#000000;fill-opacity:1;stroke:none;stroke-width:0.264583"
                x="0.42649773"
                y="131.36456"
                id="text11736"
                transform="rotate(-45)"><tspan
         sodipodi:role="line"
         id="tspan11734"
         style="font-style:normal;font-variant:normal;font-weight:600;font-stretch:normal;font-size:6.35px;font-family:'Moscow Sans';-inkscape-font-specification:'Moscow Sans, Semi-Bold';font-variant-ligatures:normal;font-variant-caps:normal;font-variant-numeric:normal;font-variant-east-asian:normal;stroke-width:0.264583"
         x="0.42649773"
         y="131.36456">Воде</tspan></text>
        <text
                xml:space="preserve"
                style="font-style:normal;font-weight:normal;font-size:10.5833px;line-height:1.25;font-family:sans-serif;fill:#000000;fill-opacity:1;stroke:none;stroke-width:0.264583"
                x="20.86676"
                y="152.18587"
                id="text13060"
                transform="rotate(-45)"><tspan
         sodipodi:role="line"
         id="tspan13058"
         style="font-style:normal;font-variant:normal;font-weight:600;font-stretch:normal;font-size:6.35px;font-family:'Moscow Sans';-inkscape-font-specification:'Moscow Sans, Semi-Bold';font-variant-ligatures:normal;font-variant-caps:normal;font-variant-numeric:normal;font-variant-east-asian:normal;stroke-width:0.264583"
         x="20.86676"
         y="152.18587">Сквозь</tspan></text>
        <text
                xml:space="preserve"
                style="font-style:normal;font-weight:normal;font-size:10.5833px;line-height:1.25;font-family:sans-serif;fill:#000000;fill-opacity:1;stroke:none;stroke-width:0.264583"
                x="0.42649841"
                y="177.00262"
                id="text13922"
                transform="rotate(-45)"><tspan
         sodipodi:role="line"
         id="tspan13920"
         style="font-style:normal;font-variant:normal;font-weight:600;font-stretch:normal;font-size:6.35px;font-family:'Moscow Sans';-inkscape-font-specification:'Moscow Sans, Semi-Bold';font-variant-ligatures:normal;font-variant-caps:normal;font-variant-numeric:normal;font-variant-east-asian:normal;stroke-width:0.264583"
         x="0.42649841"
         y="177.00262">Москву</tspan></text>
    </g>
</svg>
